<?xml version="1.0" standalone="no"?>
<!DOCTYPE svg PUBLIC "-//W3C//DTD SVG 20010904//EN"
 "http://www.w3.org/TR/2001/REC-SVG-20010904/DTD/svg10.dtd">
<svg version="1.0" xmlns="http://www.w3.org/2000/svg"
 width="700.000000pt" height="700.000000pt" viewBox="0 0 700.000000 700.000000"
 preserveAspectRatio="xMidYMid meet">
<metadata>
Created by potrace 1.14, written by Peter Selinger 2001-2017
</metadata>
<g transform="translate(0.000000,700.000000) scale(0.100000,-0.100000)"
fill="#000000" stroke="none">
<path d="M3968 6995 c-2 -2 -37 -6 -78 -9 -106 -8 -259 -29 -435 -62 -144 -26
-418 -108 -605 -181 -160 -62 -457 -211 -481 -241 -43 -55 -12 -142 58 -161
28 -8 48 -1 186 68 192 97 293 139 477 201 134 45 333 101 405 113 17 3 53 10
81 16 275 55 713 70 1004 35 170 -20 294 -42 434 -76 l128 -31 -7 -71 c-3 -38
-10 -90 -15 -115 -5 -26 -12 -77 -15 -116 -4 -38 -9 -72 -10 -75 -2 -3 -6 -37
-10 -75 -4 -39 -9 -73 -11 -76 -2 -3 -6 -34 -10 -70 -3 -35 -10 -84 -14 -108
-13 -75 2 -122 48 -144 29 -14 54 -15 89 -4 18 7 88 78 233 237 14 15 66 72
117 126 51 55 123 132 160 172 l68 73 80 -42 c81 -42 283 -167 343 -212 l32
-24 -121 -159 c-66 -88 -131 -172 -144 -189 -25 -32 -146 -189 -309 -403 l-98
-129 -93 58 c-434 273 -929 394 -1445 355 -96 -7 -129 -12 -295 -42 -70 -12
-286 -74 -330 -94 -11 -5 -49 -21 -85 -36 -597 -243 -1084 -752 -1311 -1367
-32 -88 -94 -316 -103 -382 -4 -22 -8 -51 -11 -65 -6 -29 -12 -75 -21 -175 -3
-38 -8 -72 -11 -75 -2 -3 -252 -5 -555 -5 l-550 -1 6 116 c3 63 8 124 10 135
2 11 7 47 10 80 4 33 11 85 16 115 5 30 12 71 15 90 3 19 15 73 26 120 11 47
22 92 24 100 8 40 27 108 36 130 5 14 11 34 13 45 7 35 81 236 124 335 219
511 574 977 1008 1326 61 49 121 96 133 104 87 59 42 190 -65 190 -19 0 -199
-125 -250 -174 -6 -6 -49 -45 -95 -86 -552 -497 -938 -1141 -1112 -1860 -20
-80 -38 -161 -41 -180 -3 -19 -8 -46 -10 -60 -12 -69 -28 -181 -32 -225 -2
-27 -6 -68 -9 -90 -3 -22 -8 -109 -11 -192 l-6 -153 35 -35 35 -35 626 0 626
0 0 -24 c0 -13 -11 -48 -23 -77 -71 -164 -88 -364 -45 -534 13 -52 201 -662
228 -739 53 -154 161 -263 316 -317 127 -45 240 -35 415 37 109 45 156 53 228
40 96 -18 192 -103 223 -198 6 -19 12 -147 13 -308 1 -151 5 -297 9 -323 28
-199 186 -386 380 -452 66 -21 185 -45 268 -52 65 -5 68 -5 97 25 24 24 31 39
31 70 0 70 -40 99 -165 118 -88 13 -102 16 -151 29 -68 19 -140 70 -186 131
-69 89 -71 105 -75 429 -1 160 -8 315 -14 345 -29 144 -136 279 -270 343 -93
44 -151 56 -251 52 -67 -4 -98 -12 -202 -54 -135 -54 -187 -63 -259 -45 -97
25 -167 84 -204 172 -33 77 -234 747 -242 806 -43 302 124 583 419 710 36 15
79 34 95 41 17 7 129 54 250 104 121 51 229 96 240 101 32 15 335 142 535 225
102 42 199 83 215 90 30 13 417 176 1035 435 448 188 733 308 1000 421 134 57
180 64 225 35 55 -36 53 6 53 -1151 l0 -1070 -137 -1 c-94 -1 -138 2 -138 10
0 6 -3 29 -7 51 -12 73 -87 530 -91 555 -36 232 -45 254 -110 278 -66 23 -605
209 -835 287 -118 40 -228 78 -244 84 -68 27 -133 7 -155 -47 -6 -15 -36 -121
-67 -237 -31 -115 -89 -331 -130 -480 -138 -512 -136 -498 -92 -541 19 -19
376 -213 823 -449 61 -32 141 -75 178 -97 38 -21 71 -38 74 -38 14 0 132 -78
164 -110 65 -62 95 -125 148 -315 28 -99 58 -202 66 -230 8 -27 35 -124 60
-215 24 -91 49 -178 54 -195 5 -16 19 -66 31 -110 12 -44 25 -91 30 -105 29
-83 82 -298 82 -334 0 -48 -28 -110 -64 -142 -55 -51 -117 -66 -208 -51 -19 4
-102 18 -185 32 -197 34 -176 30 -440 75 -126 22 -295 51 -375 65 -191 33
-214 33 -251 -4 -41 -41 -41 -98 0 -139 26 -25 44 -32 128 -45 143 -23 448
-75 475 -81 13 -3 41 -8 63 -11 35 -5 107 -17 170 -29 11 -2 40 -7 65 -11 25
-4 56 -10 70 -12 33 -6 56 -10 110 -18 25 -3 51 -8 58 -11 75 -24 253 -24 318
1 170 64 286 242 271 415 -3 32 -26 129 -51 216 -25 88 -72 256 -105 374 -243
872 -235 849 -314 956 -74 101 -123 136 -387 276 -47 25 -182 97 -300 160
-118 64 -285 152 -370 198 -209 111 -201 106 -191 133 9 23 35 116 122 442 28
105 64 240 81 300 16 61 34 129 39 152 10 39 12 41 37 33 31 -10 688 -235 832
-285 77 -26 96 -37 102 -56 4 -13 30 -166 58 -339 28 -173 53 -326 55 -340 3
-14 8 -45 11 -70 10 -71 27 -111 56 -133 25 -19 42 -20 288 -19 286 0 299 3
323 61 9 21 12 320 11 1177 l-1 1149 -22 56 c-30 78 -89 142 -164 178 -56 27
-70 30 -142 27 -44 -2 -91 -7 -105 -10 -19 -5 -34 2 -63 27 l-39 33 119 155
c65 85 199 260 298 389 99 129 183 240 187 245 166 211 174 226 143 285 -39
75 -630 440 -713 440 -29 0 -61 -16 -87 -44 -339 -367 -347 -376 -356 -376 -4
0 -6 10 -4 23 6 38 14 90 20 142 4 28 8 57 10 65 2 8 7 47 11 85 3 39 8 72 9
75 2 3 6 35 10 72 9 84 -10 121 -70 143 -84 30 -327 91 -440 109 -56 9 -250
35 -310 42 -63 6 -561 14 -567 9z m472 -1529 c14 -2 48 -7 75 -10 247 -29 589
-155 825 -304 78 -49 230 -163 230 -172 0 -4 -62 -33 -137 -65 -76 -32 -352
-147 -613 -257 -261 -110 -540 -227 -620 -260 -80 -33 -169 -71 -198 -84 -29
-13 -55 -24 -57 -24 -3 0 -24 -9 -48 -19 -23 -10 -107 -46 -187 -80 -286 -119
-1178 -494 -1320 -554 -151 -64 -255 -119 -304 -162 -33 -28 -37 -30 -31 -12
2 6 6 44 10 82 24 301 140 646 308 914 84 136 184 260 306 381 161 160 233
218 398 321 170 107 470 231 638 263 17 4 41 9 55 12 14 3 36 7 50 10 14 2 34
6 45 9 11 2 54 7 95 11 41 3 76 8 78 9 5 5 373 -4 402 -9z"/>
</g>
</svg>
