<?xml version="1.0"?>
<svg xmlns="http://www.w3.org/2000/svg" xmlns:xlink="http://www.w3.org/1999/xlink" xmlns:svgjs="http://svgjs.com/svgjs" version="1.1" width="512" height="512" x="0" y="0" viewBox="0 0 511.994 511.994" style="enable-background:new 0 0 512 512" xml:space="preserve" class=""><g><g xmlns="http://www.w3.org/2000/svg"><path d="m471.592 65.718c2.517-3.289 1.892-7.993-1.395-10.511-14.617-11.198-30.424-20.914-46.981-28.876-2.965-1.425-6.512-.752-8.749 1.659l-27.472 29.618 5.024-37.429c.486-3.628-1.716-7.077-5.212-8.161-25.705-7.975-52.504-12.018-79.65-12.018-46.188 0-91.742 11.937-131.737 34.519-3.606 2.037-4.88 6.611-2.844 10.218 2.037 3.608 6.614 4.881 10.219 2.843 37.749-21.314 80.753-32.58 124.362-32.58 23.511 0 46.737 3.208 69.143 9.545l-7.316 54.497c-.435 3.24 1.278 6.388 4.234 7.782 2.957 1.394 6.475.713 8.698-1.683l39.744-42.847c11.614 5.902 22.805 12.721 33.398 20.35l-49.376 64.534c-28.705-20.114-62.84-30.971-98.522-30.971-92.379 0-167.98 73.167-171.922 164.593h-81.27c1.135-38.086 10.886-75.729 28.372-109.312 18.039-34.644 44.309-65.13 75.969-88.163 3.35-2.437 4.09-7.127 1.652-10.477s-7.127-4.089-10.477-1.653c-33.526 24.39-61.345 56.675-80.449 93.365-19.743 37.918-30.179 80.707-30.179 123.74 0 4.142 3.357 7.5 7.5 7.5h88.875c.045 1.048.1 2.09.164 3.125-7.185 14.223-9.004 31.111-3.947 47.496l15.161 49.144c3.095 10.014 10.335 18.257 19.865 22.616 9.531 4.36 20.503 4.446 30.103.238l7.389-3.239c6.872-3.012 14.415-2.384 20.697 1.72 6.28 4.104 9.882 10.76 9.882 18.261v32.68c0 20.533 14.688 37.954 34.927 41.423l13.75 2.35c4.084.699 7.958-2.046 8.656-6.129s-2.046-7.958-6.129-8.656l-13.747-2.35c-13.013-2.23-22.457-13.434-22.457-26.638v-32.68c0-12.473-6.234-23.993-16.676-30.817-10.442-6.825-23.497-7.91-34.926-2.902l-7.389 3.239c-5.689 2.494-12.191 2.443-17.841-.141-5.647-2.583-9.938-7.469-11.771-13.4l-15.161-49.142c-7.416-24.023 4.474-49.479 27.658-59.212l256.149-107.57c2.73-1.145 5.71-.862 8.175.776 2.467 1.64 3.882 4.278 3.882 7.239v155.44h-19.93l-9.729-59.373c-.447-2.728-2.358-4.988-4.974-5.883l-81.81-27.99c-1.961-.671-4.118-.5-5.951.476-1.833.975-3.179 2.667-3.719 4.671l-22.601 83.96c-.906 3.366.627 6.914 3.7 8.56l81.99 43.93c7.391 3.96 12.924 10.856 15.181 18.923l25.7 91.681c1.44 5.135.218 10.354-3.354 14.318-3.575 3.968-8.647 5.723-13.909 4.824l-87.15-14.91c-4.079-.7-7.959 2.046-8.657 6.128-.698 4.083 2.045 7.958 6.128 8.657l87.149 14.91c1.729.296 3.457.441 5.171.441 8.485 0 16.6-3.56 22.411-10.008 6.983-7.749 9.471-18.37 6.655-28.41l-25.699-91.677c-3.352-11.978-11.567-22.22-22.541-28.1l-76.742-41.119 18.969-70.469 69.976 23.941 10.034 61.23c.594 3.625 3.728 6.287 7.401 6.287h33.801c4.143 0 7.5-3.358 7.5-7.5v-162.939c0-7.952-3.954-15.328-10.578-19.73-6.623-4.402-14.954-5.193-22.286-2.115l-.283.119c-1.938-1.781-3.908-3.517-5.914-5.199zm-303.959 183.237c-6.491 2.725-12.299 6.398-17.333 10.788 4.461-82.658 73.109-148.536 156.86-148.536 37.279 0 72.715 12.971 100.978 36.749z" fill="#30d158" data-original="#000000" style="" class=""/></g></g></svg>
